<?xml version="1.0" encoding="UTF-8" standalone="no"?>
<svg
   width="64"
   height="64"
   version="1.1"
   viewBox="0 0 64 64"
   id="svg5"
   sodipodi:docname="icon.svg"
   inkscape:version="1.4.3 (1:1.4.3+202512261035+0d15f75042)"
   inkscape:export-filename="icon128.png"
   inkscape:export-xdpi="192"
   inkscape:export-ydpi="192"
   xmlns:inkscape="http://www.inkscape.org/namespaces/inkscape"
   xmlns:sodipodi="http://sodipodi.sourceforge.net/DTD/sodipodi-0.dtd"
   xmlns="http://www.w3.org/2000/svg"
   xmlns:svg="http://www.w3.org/2000/svg">
  <defs
     id="defs5" />
  <sodipodi:namedview
     id="namedview5"
     pagecolor="#505050"
     bordercolor="#ffffff"
     borderopacity="1"
     inkscape:showpageshadow="0"
     inkscape:pageopacity="0"
     inkscape:pagecheckerboard="1"
     inkscape:deskcolor="#505050"
     showgrid="true"
     inkscape:zoom="29.421875"
     inkscape:cx="32.016994"
     inkscape:cy="32"
     inkscape:window-width="3774"
     inkscape:window-height="2091"
     inkscape:window-x="0"
     inkscape:window-y="0"
     inkscape:window-maximized="1"
     inkscape:current-layer="svg5">
    <inkscape:grid
       id="grid5"
       units="px"
       originx="0"
       originy="0"
       spacingx="1"
       spacingy="1"
       empcolor="#e50000"
       empopacity="0.30196078"
       color="#0099e5"
       opacity="0.14901961"
       empspacing="4"
       enabled="true"
       visible="true" />
  </sodipodi:namedview>
  <rect
     width="64"
     height="64"
     ry="16"
     fill="#ffffff"
     id="background"
     x="0"
     y="0"
     style="display:inline" />
  <path
     id="plus"
     style="font-weight:bold;font-size:48px;line-height:1.25;font-family:Roboto;-inkscape-font-specification:'Roboto, Bold';fill:#f1592b"
     d="M 30,30 H 18 v 4 h 12 v 12 h 4 V 34 H 46 V 30 H 34 V 18 h -4 z"
     sodipodi:nodetypes="ccccccccccccc" />
  <path
     id="left"
     style="font-weight:bold;font-size:48px;line-height:1.25;font-family:Roboto;-inkscape-font-specification:'Roboto, Bold'"
     d="M 17.966797,6 C 14.879323,6.0561339 11.490867,6.135018 8.9121019,8.0637558 6.600759,9.7923426 6.0033838,12.853839 6.0082237,15.578741 5.9438665,18.975488 6.102395,22.37879 5.9160156,25.771484 5.8020635,26.572754 5.7208368,27.829264 4.6552808,27.873946 3.1148038,28.087946 1.5507367,27.96251 0,28.015625 c 0,2.651042 0,5.302083 0,7.953125 1.6625398,0.118248 3.4572517,-0.214387 5.0058594,0.533203 1.0131915,0.78305 0.9175974,2.251489 0.9904334,3.404852 0.053493,3.353164 -0.094758,6.712634 0.086704,10.061865 0.1611496,2.505854 1.2263149,5.128856 3.4912224,6.427814 C 12.726969,58.206799 16.499416,57.932955 20,58.033203 c 0,-2.673828 0,-5.347656 0,-8.021484 -1.813102,-0.08102 -3.665508,0.152428 -5.449219,-0.242188 -0.642342,-0.193252 -0.45995,-1.103845 -0.545276,-1.612644 -0.05432,-3.466128 0.08562,-6.938277 -0.07919,-10.400999 C 13.779691,35.580012 12.897848,33.364346 11.136719,32 c 2.161978,-1.659719 2.892453,-4.505437 2.854582,-7.116391 0.05354,-3.245333 -0.06559,-6.496672 0.06164,-9.738383 0.0083,-0.461713 0.197486,-0.994732 0.751745,-0.98507 C 16.520874,13.890802 18.269684,14.046103 20,13.988281 20,11.314453 20,8.640625 20,5.9667969 19.322266,5.9778646 18.644531,5.9889323 17.966797,6 Z" />
  <path
     id="right"
     style="font-weight:bold;font-size:48px;line-height:1.25;font-family:Roboto;-inkscape-font-specification:'Roboto, Bold'"
     d="m 44,8 c 0,1.9960938 0,3.992187 0,5.988281 1.813102,0.08102 3.665508,-0.152428 5.449219,0.242188 0.642342,0.193252 0.45995,1.103845 0.545276,1.612644 0.05432,3.466128 -0.08562,6.938277 0.07919,10.400999 0.146619,2.175876 1.028462,4.391542 2.789591,5.755888 -2.161978,1.659719 -2.892453,4.505437 -2.854582,7.116391 -0.05354,3.245333 0.06559,6.496672 -0.06164,9.738383 -0.0083,0.461713 -0.197486,0.994732 -0.751745,0.98507 -1.716186,0.269354 -3.464996,0.114053 -5.195312,0.171875 0,2.673828 0,5.347656 0,8.021484 3.500862,-0.09992 7.272831,0.173371 10.425781,-1.636719 2.270429,-1.301783 3.333134,-3.932304 3.492659,-6.443239 0.214786,-3.801744 -0.03952,-7.617733 0.142604,-11.420579 0.117782,-0.773726 0.06768,-1.846182 0.833487,-2.288525 C 60.556777,35.823469 62.302023,36.07472 64,35.984375 c 0,-2.651042 0,-5.302083 0,-7.953125 -1.66254,-0.118248 -3.457252,0.214387 -5.005859,-0.533203 -1.013192,-0.78305 -0.917598,-2.251489 -0.990434,-3.404852 -0.05349,-3.353164 0.09476,-6.712634 -0.0867,-10.061865 C 57.755854,11.525476 56.690689,8.9024744 54.425781,7.6035156 51.273031,5.7932008 47.500584,6.0670453 44,5.9667969 44,6.6445312 44,7.3222656 44,8 Z" />
</svg>
