<?xml version="1.0" encoding="UTF-8" standalone="no"?>
<svg
   width="64"
   height="64"
   version="1.1"
   viewBox="0 0 64 64"
   id="svg5"
   sodipodi:docname="icon.svg"
   inkscape:version="1.4.3 (1:1.4.3+202512261035+0d15f75042)"
   inkscape:export-filename="icon128.png"
   inkscape:export-xdpi="192"
   inkscape:export-ydpi="192"
   xmlns:inkscape="http://www.inkscape.org/namespaces/inkscape"
   xmlns:sodipodi="http://sodipodi.sourceforge.net/DTD/sodipodi-0.dtd"
   xmlns="http://www.w3.org/2000/svg"
   xmlns:svg="http://www.w3.org/2000/svg">
  <defs
     id="defs5" />
  <sodipodi:namedview
     id="namedview5"
     pagecolor="#505050"
     bordercolor="#ffffff"
     borderopacity="1"
     inkscape:showpageshadow="0"
     inkscape:pageopacity="0"
     inkscape:pagecheckerboard="1"
     inkscape:deskcolor="#505050"
     showgrid="true"
     inkscape:zoom="29.421875"
     inkscape:cx="32.016994"
     inkscape:cy="32"
     inkscape:window-width="3774"
     inkscape:window-height="2091"
     inkscape:window-x="0"
     inkscape:window-y="0"
     inkscape:window-maximized="1"
     inkscape:current-layer="svg5">
    <inkscape:grid
       id="grid5"
       units="px"
       originx="0"
       originy="0"
       spacingx="1"
       spacingy="1"
       empcolor="#e50000"
       empopacity="0.30196078"
       color="#0099e5"
       opacity="0.14901961"
       empspacing="4"
       enabled="true"
       visible="true" />
  </sodipodi:namedview>
  <rect
     width="64"
     height="64"
     ry="16"
     fill="#ffffff"
     id="background"
     x="0"
     y="0"
     style="display:inline" />
  <path
     id="plus"
     style="font-weight:bold;font-size:48px;line-height:1.25;font-family:Roboto;-inkscape-font-specification:'Roboto, Bold';fill:#f1592b"
     d="M 30,30 H 18 v 4 h 12 v 12 h 4 V 34 H 46 V 30 H 34 V 18 h -4 z"
     sodipodi:nodetypes="ccccccccccccc" />
  <path
     style="font-weight:bold;font-size:48px;line-height:1.25;font-family:Roboto;-inkscape-font-specification:'Roboto, Bold'"
     d="m 2,34 v -4 c 4,0 6,0 6,-6 V 16 C 8,10 10,8 18,8 v 4 c -4,0 -6,0 -6,4 v 8 c 0,3 0,7 -6,8 6,1 6,5 6,8 0,1 0,7 0,8 0,4 2,4 6,4 v 4 C 10,56 8,54 8,48 V 40 C 8,35 6,34 2,34 Z"
     id="left"
     sodipodi:nodetypes="ccsccccscscccssc" />
  <path
     style="font-weight:bold;font-size:48px;line-height:1.25;font-family:Roboto;-inkscape-font-specification:'Roboto, Bold'"
     d="m 62,30 v 4 c -4,0 -6,0 -6,6 v 8 c 0,6 -2,8 -10,8 v -4 c 4,0 6,0 6,-4 v -8 c 0,-3 0,-7 6,-8 -6,-1 -6,-5 -6,-8 0,-1 0,-7 0,-8 0,-4 -2,-4 -6,-4 V 8 c 8,0 10,2 10,8 v 8 c 0,5 2,6 6,6 z"
     id="right" />
</svg>
